{"title":"Ishq Vishk (2003) BluRay 1080p x264 AAC [ TaRa ].mkv","uid":15402143,"size":1941970438,"categoryP":"video","categoryS":"hd___movies","magnet":"?xt=urn:btih:1deae2279e686d4382d197a459c9a7aefdd21ce0&amp;dn=Ishq+Vishk+%282003%29+BluRay+1080p+x264+AAC+%5B+TaRa+%5D.mkv&amp;tr=udp%3A%2F%2Ftracker.leechers-paradise.org%3A6969&amp;tr=udp%3A%2F%2Fzer0day.ch%3A1337&amp;tr=udp%3A%2F%2Fopen.demonii.com%3A1337&amp;tr=udp%3A%2F%2Ftracker.coppersurfer.tk%3A6969&amp;tr=udp%3A%2F%2Fexodus.desync.com%3A6969","seeders":0,"leechers":1,"uploader":"MdTaRa","files":1,"time":1469470692,"description":"=========================================================================\r\nGeneral\r\nIshq Vishk (2003) BluRay 1080p x264 AAC [ TaRa ].mkv\r\nFormat                      : Matroska\r\nFormat version              : Version 4 / Version 2\r\nFile size                   : 1.81 GiB\r\nDuration                    : 2h 9mn\r\nOverall bit rate mode       : Variable\r\nOverall bit rate            : 1 999 Kbps\r\n=======================================================================\r\nVideo\r\nID                          : 1\r\nFormat                      : AVC\r\nFormat/Info                 : Advanced Video Codec\r\nFormat profile              :   \r\nFormat settings, CABAC      : Yes\r\nFormat settings, ReFrames   : 3 frames\r\nCodec ID                    : V_MPEG4/ISO/AVC\r\nDuration                    : 2h 9mn\r\nBit rate mode               : Variable\r\nBit rate                    : 1 902 Kbps\r\nMaximum bit rate            : 40.0 Mbps\r\nWidth                       : 1 920 pixels\r\nHeight                      : 816 pixels\r\nDisplay aspect ratio        : 2.35:1\r\nFrame rate mode             : Constant\r\nFrame rate                  : 25.000 fps\r\nColor space                 : YUV\r\nChroma subsampling          : 4:2:0\r\nBit depth                   : 8 bits\r\nScan type                   : Progressive\r\nBits/(Pixel*Frame)          : 0.049\r\nStream size                 : 1.72 GiB (95%)\r\nTitle                       : Hindi .....::::: TaRa :::::....\r\nLanguage                    : Hindi\r\nDefault                     : Yes\r\nForced                      : No\r\n=========================================================================\r\nAudio\r\nID                          : 2\r\nFormat                      : AAC\r\nFormat/Info                 : Advanced Audio Codec\r\nFormat profile              : LC\r\nCodec ID                    : A_AAC\r\nDuration                    : 2h 9mn\r\nBit rate                    : 96.0 Kbps\r\nChannel(s)                  : 2 channels\r\nChannel positions           : Front: L R\r\nSampling rate               : 48.0 KHz\r\nFrame rate                  : 46.875 fps (1024 spf)\r\nCompression mode            : Lossy\r\nDelay relative to video     : 9ms\r\nStream size                 : 88.5 MiB (5%)\r\nTitle                       : Hindi  .....::::: TaRa :::::....\r\nLanguage                    : Hindi\r\nDefault                     : Yes\r\nForced                      : No\r\n========================================================================== \nhttp://imgur.com/OPvRmSs \nhttp://imgur.com/ZNF0KPw \nhttp://imgur.com/0D6Tda3 \nhttp://imgur.com/iV6Oeoj \nhttp://imgur.com/jPvQhvR \nhttp://imgur.com/lpsEr0k \nhttp://imgur.com/iD0kilu \nhttp://imgur.com/9vYhamu","torrent":{"xt":"urn:btih:1deae2279e686d4382d197a459c9a7aefdd21ce0","amp;dn":"Ishq+Vishk+%282003%29+BluRay+1080p+x264+AAC+%5B+TaRa+%5D.mkv","amp;tr":["udp%3A%2F%2Ftracker.leechers-paradise.org%3A6969","udp%3A%2F%2Fzer0day.ch%3A1337","udp%3A%2F%2Fopen.demonii.com%3A1337","udp%3A%2F%2Ftracker.coppersurfer.tk%3A6969","udp%3A%2F%2Fexodus.desync.com%3A6969"],"infoHash":"1deae2279e686d4382d197a459c9a7aefdd21ce0","infoHashBuffer":{"type":"Buffer","data":[29,234,226,39,158,104,109,67,130,209,151,164,89,201,167,174,253,210,28,224]},"announce":[],"urlList":[]}}